# xmcd CD database file
#
# Track frame offsets:
#	150
#	16723
#	37136
#	57085
#	85294
#	105139
#	114956
#	124241
#	162690
#	183639
#	197912
#	223361
#	230130
#	230887
#	246068
#	267705
#	280254
#
# Disc length: 3935 seconds
#
# Revision: 0
# Processed by: cddbd v1.4PL0 Copyright (c) Steve Scherf et al.
# Submitted via: CDex 1.50beta9
#
DISCID=030f5d11
DTITLE=Before the Rain - Hitchin' to Santa Fe
DYEAR=2002
DGENRE=Jazz
TTITLE0=Bayati Blues
TTITLE1=One Thing Leads to Another (Forever in a Circle)
TTITLE2=Pictures of Before
TTITLE3=Hitchin' to Santa Fe
TTITLE4=Legend of the Three Legged Coyote
TTITLE5=Wichita Tango
TTITLE6=Secret Bells of Time
TTITLE7=Skinwalker
TTITLE8=Cry of the Wounded Healer
TTITLE9=Friday by the Railroad Tracks
TTITLE10=Walking Together in the Snow
TTITLE11=Postcards from Sarajevo
TTITLE12=Sad-Eyed Friend Introduction
TTITLE13=Sad-Eyed Friend and an Angel
TTITLE14=Saved by Friends
TTITLE15=The Bone Game
TTITLE16=Portraits of Cynthia
EXTD=YEAR: 2002
EXTT0=
EXTT1=
EXTT2=
EXTT3=
EXTT4=
EXTT5=
EXTT6=
EXTT7=
EXTT8=
EXTT9=
EXTT10=
EXTT11=
EXTT12=
EXTT13=
EXTT14=
EXTT15=
EXTT16=
PLAYORDER=
